<svg width="171" height="180" viewBox="0 0 171 180" fill="none" xmlns="http://www.w3.org/2000/svg">
<path d="M31 0.15L161 0.15C166.44 0.15 170.85 4.56 170.85 10V170C170.85 175.44 166.44 179.85 161 179.85H31C25.56 179.85 21.15 175.44 21.15 170L21.15 10C21.15 4.56 25.56 0.15 31 0.15Z" fill="#32CD32" stroke="black" stroke-width="0.3"/>
<path d="M20.5 12.15L150.5 12.15C155.94 12.15 160.35 16.56 160.35 22V159.5C160.35 164.94 155.94 169.35 150.5 169.35H20.5C15.06 169.35 10.65 164.94 10.65 159.5L10.65 22C10.65 16.56 15.06 12.15 20.5 12.15Z" fill="white" stroke="black" stroke-width="0.3"/>
<path d="M10 0.15H140C145.44 0.15 149.85 4.56 149.85 10V170C149.85 175.44 145.44 179.85 140 179.85H10C4.55999 179.85 0.15 175.44 0.15 170V10C0.15 4.56 4.56 0.15 10 0.15Z" fill="#32CD32" stroke="black" stroke-width="0.3"/>
<g clip-path="url(#clip0_1841_2)">
<path d="M68.0797 112.304C65.7155 113.279 63.1955 113.821 60.6397 113.904C59.4351 113.963 58.231 113.78 57.0986 113.365C55.9663 112.95 54.9288 112.312 54.0477 111.488L68.0797 112.304ZM68.0797 112.304C70.6398 111.294 73.0943 110.035 75.4077 108.544L68.0797 112.304ZM56.0196 98.5382L56.0199 98.5376C56.775 96.5992 57.6941 94.7288 58.7672 92.9467L58.8831 92.7541L59.0164 92.935C60.9175 95.5142 63.0091 97.9473 65.2737 100.214C65.9351 100.875 66.6112 101.522 67.2878 102.139C68.1593 101.69 69.0445 101.184 69.9434 100.619C69.7966 100.489 69.6495 100.359 69.5023 100.229C68.7733 99.5864 68.0418 98.9414 67.3318 98.1683C63.7219 94.6207 60.6233 90.5879 58.1252 86.1861L58.0699 86.0886L58.1477 86.0079C58.6277 85.5105 58.9502 84.8825 59.0751 84.2027C59.1999 83.5228 59.1215 82.8213 58.8496 82.1858C58.5777 81.5503 58.1245 81.0091 57.5465 80.6299C56.9686 80.2507 56.2917 80.0504 55.6005 80.054L55.4882 80.0546L55.456 79.9471C54.8526 77.9357 54.6003 76.1206 54.7141 74.5909C54.8279 73.0609 55.3089 71.8067 56.1816 70.934L56.1883 70.9273L56.1885 70.9275C56.7951 70.3929 57.5019 69.9842 58.2679 69.7251C59.0329 69.4664 59.8417 69.362 60.6474 69.4182C62.8229 69.4912 64.9682 69.9498 66.9834 70.7728C68.9217 71.5336 70.7917 72.4579 72.5733 73.5357L72.7658 73.6521L72.5843 73.7851C69.9957 75.6803 67.557 77.7722 65.2898 80.042L65.2897 80.0421C64.6118 80.7201 63.9482 81.4283 63.2986 82.1386C63.7375 83.0547 64.2193 83.9496 64.7426 84.8202C65.5644 83.8952 66.4039 82.9836 67.3016 82.086L67.3017 82.0859C69.7696 79.6206 72.454 77.3819 75.3223 75.3967L75.4083 75.3372L75.4939 75.3973C78.3314 77.3899 80.9883 79.6281 83.4338 82.086C83.4339 82.0861 83.4339 82.0862 83.434 82.0862L83.3277 82.192C85.7871 84.6532 88.0201 87.3307 89.9997 90.192L56.0196 98.5382ZM56.0196 98.5382C55.0873 100.966 54.6294 103.157 54.6497 104.992C54.67 106.826 55.1689 108.317 56.1652 109.322C57.1623 110.327 58.6663 110.826 60.51 110.846C62.3545 110.866 64.5538 110.409 66.9654 109.484L66.9117 109.344M56.0196 98.5382L66.9117 109.344M66.9117 109.344L66.9691 109.483C73.1619 106.914 78.7648 103.108 83.4345 98.2974L66.9117 109.344ZM78.178 73.5357L77.9855 73.6521L78.1671 73.7851C80.7556 75.6803 83.1943 77.7722 85.4615 80.042L85.5676 79.9361L85.4637 80.0442C90.6046 84.9871 94.6768 90.9322 97.4284 97.5118C99.7721 103.635 99.4453 108.549 96.6151 111.38C96.2606 111.717 95.8725 112.016 95.4568 112.272L95.3885 112.315L95.3858 112.395C95.3586 113.187 95.066 113.946 94.555 114.551C94.044 115.157 93.3442 115.572 92.5683 115.732C91.7924 115.891 90.9854 115.785 90.2772 115.43C89.5689 115.076 89.0005 114.493 88.6634 113.776L88.6276 113.7L88.5439 113.691C86.5554 113.474 84.6047 112.993 82.7434 112.261C80.2038 111.225 77.7741 109.938 75.4908 108.419L75.409 108.365L75.3264 108.418C73.0213 109.903 70.5756 111.158 68.0246 112.164L68.0225 112.165C65.675 113.133 63.1726 113.671 60.6348 113.754L60.6323 113.754C59.4478 113.812 58.2637 113.632 57.1502 113.224C56.0373 112.816 55.0175 112.189 54.1513 111.38C51.3225 108.612 50.9947 103.636 53.3397 97.5098C54.3292 94.9576 55.5735 92.5117 57.0538 90.2092L57.1063 90.1276L57.0534 90.0463C56.4324 89.0908 55.8747 88.119 55.3645 87.1464L55.3266 87.0742L55.2455 87.0667C54.6207 87.0089 54.0229 86.7842 53.5149 86.416C53.0068 86.0479 52.6071 85.5498 52.3577 84.9741C52.1082 84.3984 52.0182 83.7661 52.0971 83.1437C52.176 82.5212 52.4209 81.9314 52.8061 81.4361L52.8547 81.3736L52.8305 81.2981C51.0771 75.8468 51.525 71.4865 54.1221 68.8738L54.1229 68.8729C56.89 66.0433 61.8502 65.7306 67.9931 68.0598C70.5461 69.0862 72.9914 70.3623 75.2935 71.8695L75.3752 71.923L75.4572 71.8699C77.7548 70.3818 80.1952 69.1269 82.7421 68.1238C83.3596 67.8863 83.946 67.7119 84.5384 67.5358L84.625 67.5101L84.6427 67.4215C84.7877 66.6989 85.1562 66.0402 85.6961 65.5385C86.236 65.0368 86.92 64.7176 87.6512 64.626C88.3825 64.5344 89.1241 64.675 89.7711 65.028C90.4181 65.3809 90.9377 65.9284 91.2564 66.5929L91.2947 66.6726L91.383 66.6778C93.3393 66.7916 95.1925 67.5928 96.6155 68.94C99.445 71.7237 99.7726 76.6846 97.4275 82.8265L97.4265 82.8294C97.2634 83.2837 97.0667 83.7363 96.8651 84.2005C96.8306 84.2799 96.796 84.3595 96.7614 84.4396C96.1573 83.4442 95.5011 82.4867 94.7929 81.5435C95.6738 79.1708 96.1057 77.0227 96.0797 75.2219C96.0533 73.4021 95.5585 71.9227 94.5697 70.934L94.5699 70.9338L94.5642 70.9287C93.6887 70.138 92.5801 69.653 91.4052 69.5466L91.3018 69.5373L91.2566 69.6307C91.0014 70.1585 90.6177 70.6136 90.1407 70.9543C89.6637 71.295 89.1088 71.5104 88.5268 71.5807C87.9448 71.651 87.3545 71.5738 86.8102 71.3564C86.2658 71.139 85.7848 70.7883 85.4113 70.3365L85.3479 70.2598L85.2526 70.2884L85.2507 70.2889C84.7718 70.4326 84.2877 70.5778 83.771 70.7716L83.7689 70.7724C81.8303 71.5333 79.9599 72.4577 78.178 73.5357ZM94.5583 109.316L94.5638 109.312L94.5689 109.307C95.5749 108.318 96.0655 106.829 96.0797 104.993C96.0939 103.157 95.6321 100.958 94.7161 98.5232L94.7153 98.5212C93.9543 96.5827 93.0298 94.7124 91.952 92.9304L91.8355 92.7377L91.7026 92.9195C89.8112 95.5059 87.7192 97.9395 85.446 100.198L85.4455 100.198C83.1783 102.468 80.7396 104.56 78.1511 106.455L77.9702 106.587L78.1616 106.704C79.9404 107.788 81.8115 108.713 83.7531 109.468C85.3076 110.079 86.9317 110.496 88.5886 110.709L88.6944 110.722L88.742 110.627C88.9773 110.154 89.317 109.741 89.7355 109.419C90.154 109.097 90.6403 108.874 91.1575 108.768C91.6747 108.662 92.2094 108.674 92.721 108.805C93.2327 108.936 93.7079 109.181 94.1107 109.522L94.2056 109.603L94.3023 109.524L94.5583 109.316Z" fill="white" stroke="black" stroke-width="0.3"/>
<path d="M80.6518 89.2807C81.1057 92.0773 79.2066 94.7124 76.41 95.1663C73.6134 95.6203 70.9783 93.7212 70.5243 90.9246C70.0704 88.1279 71.9695 85.4928 74.7661 85.0389C77.5627 84.5849 80.1978 86.484 80.6518 89.2807Z" fill="white" stroke="black" stroke-width="0.3"/>
</g>
<defs>
<clipPath id="clip0_1841_2">
<rect width="57.6" height="57.6" fill="white" transform="translate(46.7998 61.2)"/>
</clipPath>
</defs>
</svg>
