<svg width="216" height="200" viewBox="0 0 216 200" fill="none" xmlns="http://www.w3.org/2000/svg">
<path d="M17.9883 180.781L25.6836 186.875L21.9922 190.078L14.4141 183.984L17.9883 180.781ZM25.8789 170.117V171.465C25.8789 173.626 25.5859 175.566 25 177.285C24.4271 179.004 23.6003 180.469 22.5195 181.68C21.4388 182.878 20.1628 183.796 18.6914 184.434C17.2201 185.072 15.5859 185.391 13.7891 185.391C12.0052 185.391 10.3711 185.072 8.88672 184.434C7.40234 183.796 6.11979 182.878 5.03906 181.68C3.95833 180.469 3.11849 179.004 2.51953 177.285C1.93359 175.566 1.64062 173.626 1.64062 171.465V170.117C1.64062 167.943 1.93359 166.003 2.51953 164.297C3.11849 162.578 3.95182 161.113 5.01953 159.902C6.08724 158.691 7.36328 157.767 8.84766 157.129C10.332 156.491 11.9661 156.172 13.75 156.172C15.5469 156.172 17.181 156.491 18.6523 157.129C20.1367 157.767 21.4193 158.691 22.5 159.902C23.5807 161.113 24.4141 162.578 25 164.297C25.5859 166.003 25.8789 167.943 25.8789 170.117ZM19.9609 171.465V170.078C19.9609 168.568 19.8177 167.24 19.5312 166.094C19.2578 164.948 18.8542 163.984 18.3203 163.203C17.7995 162.422 17.1549 161.836 16.3867 161.445C15.6185 161.042 14.7396 160.84 13.75 160.84C12.7604 160.84 11.8815 161.042 11.1133 161.445C10.3451 161.836 9.70052 162.422 9.17969 163.203C8.65885 163.984 8.26172 164.948 7.98828 166.094C7.71484 167.24 7.57812 168.568 7.57812 170.078V171.465C7.57812 172.962 7.71484 174.29 7.98828 175.449C8.26172 176.595 8.65885 177.565 9.17969 178.359C9.71354 179.141 10.3646 179.733 11.1328 180.137C11.9141 180.54 12.7995 180.742 13.7891 180.742C14.7786 180.742 15.651 180.54 16.4062 180.137C17.1745 179.733 17.819 179.141 18.3398 178.359C18.8737 177.565 19.2773 176.595 19.5508 175.449C19.8242 174.29 19.9609 172.962 19.9609 171.465ZM42.2656 179.941V163.867H47.8906V185H42.5977L42.2656 179.941ZM42.8906 175.605L44.5508 175.566C44.5508 176.973 44.388 178.281 44.0625 179.492C43.737 180.69 43.2487 181.732 42.5977 182.617C41.9466 183.49 41.1263 184.173 40.1367 184.668C39.1471 185.15 37.9818 185.391 36.6406 185.391C35.612 185.391 34.6615 185.247 33.7891 184.961C32.9297 184.661 32.1875 184.199 31.5625 183.574C30.9505 182.936 30.4688 182.122 30.1172 181.133C29.7786 180.13 29.6094 178.926 29.6094 177.52V163.867H35.2344V177.559C35.2344 178.184 35.306 178.711 35.4492 179.141C35.6055 179.57 35.8203 179.922 36.0938 180.195C36.3672 180.469 36.6862 180.664 37.0508 180.781C37.4284 180.898 37.8451 180.957 38.3008 180.957C39.4596 180.957 40.3711 180.723 41.0352 180.254C41.7122 179.785 42.1875 179.147 42.4609 178.34C42.7474 177.52 42.8906 176.608 42.8906 175.605ZM58.125 163.867V185H52.4805V163.867H58.125ZM52.1289 158.359C52.1289 157.539 52.4154 156.862 52.9883 156.328C53.5612 155.794 54.3294 155.527 55.293 155.527C56.2435 155.527 57.0052 155.794 57.5781 156.328C58.1641 156.862 58.457 157.539 58.457 158.359C58.457 159.18 58.1641 159.857 57.5781 160.391C57.0052 160.924 56.2435 161.191 55.293 161.191C54.3294 161.191 53.5612 160.924 52.9883 160.391C52.4154 159.857 52.1289 159.18 52.1289 158.359ZM71.5039 180.996C72.194 180.996 72.806 180.866 73.3398 180.605C73.8737 180.332 74.2904 179.954 74.5898 179.473C74.9023 178.978 75.0651 178.398 75.0781 177.734H80.3711C80.3581 179.219 79.9609 180.54 79.1797 181.699C78.3984 182.845 77.3503 183.75 76.0352 184.414C74.7201 185.065 73.2487 185.391 71.6211 185.391C69.9805 185.391 68.5482 185.117 67.3242 184.57C66.1133 184.023 65.1042 183.268 64.2969 182.305C63.4896 181.328 62.8841 180.195 62.4805 178.906C62.0768 177.604 61.875 176.211 61.875 174.727V174.16C61.875 172.663 62.0768 171.27 62.4805 169.98C62.8841 168.678 63.4896 167.546 64.2969 166.582C65.1042 165.605 66.1133 164.844 67.3242 164.297C68.5352 163.75 69.9544 163.477 71.582 163.477C73.3138 163.477 74.8307 163.809 76.1328 164.473C77.4479 165.137 78.4766 166.087 79.2188 167.324C79.974 168.548 80.3581 170 80.3711 171.68H75.0781C75.0651 170.977 74.9154 170.339 74.6289 169.766C74.3555 169.193 73.9518 168.737 73.418 168.398C72.8971 168.047 72.2526 167.871 71.4844 167.871C70.6641 167.871 69.9935 168.047 69.4727 168.398C68.9518 168.737 68.5482 169.206 68.2617 169.805C67.9753 170.391 67.7734 171.061 67.6562 171.816C67.5521 172.559 67.5 173.34 67.5 174.16V174.727C67.5 175.547 67.5521 176.335 67.6562 177.09C67.7604 177.845 67.9557 178.516 68.2422 179.102C68.5417 179.688 68.9518 180.15 69.4727 180.488C69.9935 180.827 70.6706 180.996 71.5039 180.996ZM89.2578 154.98V185H83.6328V154.98H89.2578ZM102.578 163.867L93.3984 174.336L88.4766 179.316L86.4258 175.254L90.332 170.293L95.8203 163.867H102.578ZM96.7383 185L90.4883 175.234L94.375 171.836L103.223 185H96.7383ZM124.043 185H117.852L117.891 180.43H124.043C125.579 180.43 126.875 180.085 127.93 179.395C128.984 178.691 129.779 177.669 130.312 176.328C130.859 174.987 131.133 173.366 131.133 171.465V170.078C131.133 168.62 130.977 167.337 130.664 166.23C130.365 165.124 129.915 164.193 129.316 163.438C128.717 162.682 127.982 162.116 127.109 161.738C126.237 161.348 125.234 161.152 124.102 161.152H117.734V156.562H124.102C126.003 156.562 127.741 156.888 129.316 157.539C130.905 158.177 132.279 159.095 133.438 160.293C134.596 161.491 135.488 162.923 136.113 164.59C136.751 166.243 137.07 168.086 137.07 170.117V171.465C137.07 173.483 136.751 175.326 136.113 176.992C135.488 178.659 134.596 180.091 133.438 181.289C132.292 182.474 130.918 183.392 129.316 184.043C127.728 184.681 125.97 185 124.043 185ZM121.172 156.562V185H115.312V156.562H121.172ZM152.383 180.234V170.82C152.383 170.143 152.272 169.564 152.051 169.082C151.829 168.587 151.484 168.203 151.016 167.93C150.56 167.656 149.967 167.52 149.238 167.52C148.613 167.52 148.073 167.63 147.617 167.852C147.161 168.06 146.81 168.366 146.562 168.77C146.315 169.16 146.191 169.622 146.191 170.156H140.566C140.566 169.258 140.775 168.405 141.191 167.598C141.608 166.79 142.214 166.081 143.008 165.469C143.802 164.844 144.746 164.355 145.84 164.004C146.947 163.652 148.184 163.477 149.551 163.477C151.191 163.477 152.65 163.75 153.926 164.297C155.202 164.844 156.204 165.664 156.934 166.758C157.676 167.852 158.047 169.219 158.047 170.859V179.902C158.047 181.061 158.118 182.012 158.262 182.754C158.405 183.483 158.613 184.121 158.887 184.668V185H153.203C152.93 184.427 152.721 183.711 152.578 182.852C152.448 181.979 152.383 181.107 152.383 180.234ZM153.125 172.129L153.164 175.312H150.02C149.277 175.312 148.633 175.397 148.086 175.566C147.539 175.736 147.09 175.977 146.738 176.289C146.387 176.589 146.126 176.94 145.957 177.344C145.801 177.747 145.723 178.19 145.723 178.672C145.723 179.154 145.833 179.59 146.055 179.98C146.276 180.358 146.595 180.658 147.012 180.879C147.428 181.087 147.917 181.191 148.477 181.191C149.323 181.191 150.059 181.022 150.684 180.684C151.309 180.345 151.79 179.928 152.129 179.434C152.48 178.939 152.663 178.47 152.676 178.027L154.16 180.41C153.952 180.944 153.665 181.497 153.301 182.07C152.949 182.643 152.5 183.184 151.953 183.691C151.406 184.186 150.749 184.596 149.98 184.922C149.212 185.234 148.301 185.391 147.246 185.391C145.905 185.391 144.688 185.124 143.594 184.59C142.513 184.043 141.654 183.294 141.016 182.344C140.391 181.38 140.078 180.286 140.078 179.062C140.078 177.956 140.286 176.973 140.703 176.113C141.12 175.254 141.732 174.531 142.539 173.945C143.359 173.346 144.382 172.897 145.605 172.598C146.829 172.285 148.249 172.129 149.863 172.129H153.125ZM172.734 163.867V167.852H160.43V163.867H172.734ZM163.477 158.652H169.102V178.633C169.102 179.245 169.18 179.714 169.336 180.039C169.505 180.365 169.753 180.592 170.078 180.723C170.404 180.84 170.814 180.898 171.309 180.898C171.66 180.898 171.973 180.885 172.246 180.859C172.533 180.82 172.773 180.781 172.969 180.742L172.988 184.883C172.507 185.039 171.986 185.163 171.426 185.254C170.866 185.345 170.247 185.391 169.57 185.391C168.333 185.391 167.253 185.189 166.328 184.785C165.417 184.368 164.714 183.704 164.219 182.793C163.724 181.882 163.477 180.684 163.477 179.199V158.652ZM185.664 185.391C184.023 185.391 182.552 185.13 181.25 184.609C179.948 184.076 178.841 183.34 177.93 182.402C177.031 181.465 176.341 180.378 175.859 179.141C175.378 177.891 175.137 176.562 175.137 175.156V174.375C175.137 172.773 175.365 171.309 175.82 169.98C176.276 168.652 176.927 167.5 177.773 166.523C178.633 165.547 179.674 164.798 180.898 164.277C182.122 163.743 183.503 163.477 185.039 163.477C186.536 163.477 187.865 163.724 189.023 164.219C190.182 164.714 191.152 165.417 191.934 166.328C192.728 167.24 193.327 168.333 193.73 169.609C194.134 170.872 194.336 172.279 194.336 173.828V176.172H177.539V172.422H188.809V171.992C188.809 171.211 188.665 170.514 188.379 169.902C188.105 169.277 187.689 168.783 187.129 168.418C186.569 168.053 185.853 167.871 184.98 167.871C184.238 167.871 183.6 168.034 183.066 168.359C182.533 168.685 182.096 169.141 181.758 169.727C181.432 170.312 181.185 171.003 181.016 171.797C180.859 172.578 180.781 173.438 180.781 174.375V175.156C180.781 176.003 180.898 176.784 181.133 177.5C181.38 178.216 181.725 178.835 182.168 179.355C182.624 179.876 183.171 180.28 183.809 180.566C184.46 180.853 185.195 180.996 186.016 180.996C187.031 180.996 187.975 180.801 188.848 180.41C189.733 180.007 190.495 179.401 191.133 178.594L193.867 181.562C193.424 182.201 192.819 182.812 192.051 183.398C191.296 183.984 190.384 184.466 189.316 184.844C188.249 185.208 187.031 185.391 185.664 185.391ZM208.965 179.16C208.965 178.757 208.848 178.392 208.613 178.066C208.379 177.741 207.943 177.441 207.305 177.168C206.68 176.882 205.775 176.621 204.59 176.387C203.522 176.152 202.526 175.859 201.602 175.508C200.69 175.143 199.896 174.707 199.219 174.199C198.555 173.691 198.034 173.092 197.656 172.402C197.279 171.699 197.09 170.898 197.09 170C197.09 169.115 197.279 168.281 197.656 167.5C198.047 166.719 198.6 166.029 199.316 165.43C200.046 164.818 200.931 164.342 201.973 164.004C203.027 163.652 204.212 163.477 205.527 163.477C207.363 163.477 208.939 163.77 210.254 164.355C211.582 164.941 212.598 165.749 213.301 166.777C214.017 167.793 214.375 168.952 214.375 170.254H208.75C208.75 169.707 208.633 169.219 208.398 168.789C208.177 168.346 207.826 168.001 207.344 167.754C206.875 167.493 206.263 167.363 205.508 167.363C204.883 167.363 204.342 167.474 203.887 167.695C203.431 167.904 203.079 168.19 202.832 168.555C202.598 168.906 202.48 169.297 202.48 169.727C202.48 170.052 202.546 170.345 202.676 170.605C202.819 170.853 203.047 171.081 203.359 171.289C203.672 171.497 204.076 171.693 204.57 171.875C205.078 172.044 205.703 172.201 206.445 172.344C207.969 172.656 209.329 173.066 210.527 173.574C211.725 174.069 212.676 174.746 213.379 175.605C214.082 176.452 214.434 177.565 214.434 178.945C214.434 179.883 214.225 180.742 213.809 181.523C213.392 182.305 212.793 182.988 212.012 183.574C211.23 184.147 210.293 184.596 209.199 184.922C208.118 185.234 206.901 185.391 205.547 185.391C203.581 185.391 201.914 185.039 200.547 184.336C199.193 183.633 198.164 182.741 197.461 181.66C196.771 180.566 196.426 179.447 196.426 178.301H201.758C201.784 179.069 201.979 179.688 202.344 180.156C202.721 180.625 203.197 180.964 203.77 181.172C204.355 181.38 204.987 181.484 205.664 181.484C206.393 181.484 206.999 181.387 207.48 181.191C207.962 180.983 208.327 180.71 208.574 180.371C208.835 180.02 208.965 179.616 208.965 179.16Z" fill="#32CD32"/>
<rect x="53.15" y="11.3364" width="109.7" height="109.7" rx="4.85" fill="white" stroke="black" stroke-width="0.3"/>
<rect x="62.4721" y="39.3027" width="14.6153" height="14.6153" rx="1.85" fill="#32CD32" stroke="black" stroke-width="0.3"/>
<rect x="138.913" y="39.3027" width="14.6153" height="14.6153" rx="1.85" fill="#32CD32" stroke="black" stroke-width="0.3"/>
<rect x="114.675" y="39.3027" width="14.6153" height="14.6153" rx="1.85" fill="#32CD32" stroke="black" stroke-width="0.3"/>
<rect x="88.5737" y="39.3027" width="14.6153" height="14.6153" rx="1.85" fill="#32CD32" stroke="black" stroke-width="0.3"/>
<rect x="62.4721" y="61.6755" width="14.6153" height="14.6153" rx="1.85" fill="#32CD32" stroke="black" stroke-width="0.3"/>
<rect x="138.913" y="61.6755" width="14.6153" height="14.6153" rx="1.85" fill="#32CD32" stroke="black" stroke-width="0.3"/>
<rect x="114.675" y="61.6755" width="14.6153" height="14.6153" rx="1.85" fill="#32CD32" stroke="black" stroke-width="0.3"/>
<rect x="88.5737" y="61.6755" width="14.6153" height="14.6153" rx="1.85" fill="#32CD32" stroke="black" stroke-width="0.3"/>
<rect x="62.4721" y="84.0483" width="14.6153" height="14.6153" rx="1.85" fill="#32CD32" stroke="black" stroke-width="0.3"/>
<rect x="114.675" y="84.0483" width="14.6153" height="14.6153" rx="1.85" fill="#32CD32" stroke="black" stroke-width="0.3"/>
<rect x="88.5737" y="84.0483" width="14.6153" height="14.6153" rx="1.85" fill="#32CD32" stroke="black" stroke-width="0.3"/>
<path d="M53.15 16.1864C53.15 13.5078 55.3214 11.3364 58 11.3364H158C160.679 11.3364 162.85 13.5078 162.85 16.1864V29.6805H53.15V16.1864Z" fill="#32CD32" stroke="black" stroke-width="0.3"/>
<rect x="71.7941" y="0.15" width="9.02203" height="18.3441" rx="2.85" fill="white" stroke="black" stroke-width="0.3"/>
<rect x="137.048" y="0.15" width="9.02203" height="18.3441" rx="2.85" fill="white" stroke="black" stroke-width="0.3"/>
</svg>
