<svg width="70" height="78" viewBox="0 0 70 78" fill="none" xmlns="http://www.w3.org/2000/svg">
<rect x="0.15" y="7.26859" width="69.7" height="69.7" rx="4.85" fill="white" stroke="black" stroke-width="0.3"/>
<rect x="6.08225" y="25.0654" width="9.19152" height="9.19152" rx="1.85" fill="#32CD32" stroke="black" stroke-width="0.3"/>
<rect x="54.7263" y="25.0654" width="9.19152" height="9.19152" rx="1.85" fill="#32CD32" stroke="black" stroke-width="0.3"/>
<rect x="39.3025" y="25.0654" width="9.19152" height="9.19152" rx="1.85" fill="#32CD32" stroke="black" stroke-width="0.3"/>
<rect x="22.6924" y="25.0654" width="9.19152" height="9.19152" rx="1.85" fill="#32CD32" stroke="black" stroke-width="0.3"/>
<rect x="6.08225" y="39.3026" width="9.19152" height="9.19152" rx="1.85" fill="#32CD32" stroke="black" stroke-width="0.3"/>
<rect x="54.7263" y="39.3026" width="9.19152" height="9.19152" rx="1.85" fill="#32CD32" stroke="black" stroke-width="0.3"/>
<rect x="39.3025" y="39.3026" width="9.19152" height="9.19152" rx="1.85" fill="#32CD32" stroke="black" stroke-width="0.3"/>
<rect x="22.6924" y="39.3026" width="9.19152" height="9.19152" rx="1.85" fill="#32CD32" stroke="black" stroke-width="0.3"/>
<rect x="6.08225" y="53.5398" width="9.19152" height="9.19152" rx="1.85" fill="#32CD32" stroke="black" stroke-width="0.3"/>
<rect x="39.3025" y="53.5398" width="9.19152" height="9.19152" rx="1.85" fill="#32CD32" stroke="black" stroke-width="0.3"/>
<rect x="22.6924" y="53.5398" width="9.19152" height="9.19152" rx="1.85" fill="#32CD32" stroke="black" stroke-width="0.3"/>
<path d="M0.15 12.1186C0.15 9.44001 2.32142 7.26859 5 7.26859H65C67.6786 7.26859 69.85 9.44001 69.85 12.1186V18.833H0.15V12.1186Z" fill="#32CD32" stroke="black" stroke-width="0.3"/>
<rect x="12.0144" y="0.15" width="5.6322" height="11.5644" rx="2.8161" fill="white" stroke="black" stroke-width="0.3"/>
<rect x="53.5398" y="0.15" width="5.6322" height="11.5644" rx="2.8161" fill="white" stroke="black" stroke-width="0.3"/>
</svg>
