<svg width="172" height="181" viewBox="0 0 172 181" fill="none" xmlns="http://www.w3.org/2000/svg">
<path d="M140.625 0.965063L10.6255 0.965063C5.18549 0.965063 0.775482 5.37506 0.775482 10.8151V170.815C0.775482 176.255 5.18549 180.665 10.6255 180.665H140.625C146.065 180.665 150.475 176.255 150.475 170.815V10.8151C150.475 5.37506 146.065 0.965063 140.625 0.965063Z" fill="#32CD32" stroke="black" stroke-width="0.3"/>
<path d="M151.125 12.9651L21.1255 12.9651C15.6855 12.9651 11.2755 17.3751 11.2755 22.8151V160.315C11.2755 165.755 15.6855 170.165 21.1255 170.165H151.125C156.565 170.165 160.975 165.755 160.975 160.315V22.8151C160.975 17.3751 156.565 12.9651 151.125 12.9651Z" fill="white" stroke="black" stroke-width="0.3"/>
<path d="M161.625 0.965063L31.6255 0.965063C26.1855 0.965063 21.7755 5.37506 21.7755 10.8151L21.7755 170.815C21.7755 176.255 26.1855 180.665 31.6255 180.665L161.625 180.665C167.065 180.665 171.475 176.255 171.475 170.815L171.475 10.8151C171.475 5.37506 167.065 0.965063 161.625 0.965063Z" fill="#32CD32" stroke="black" stroke-width="0.3"/>
<path d="M152.342 30.6903L143.575 36.5348V0.965063L161.275 0.965063V36.5348L152.508 30.6903L152.425 30.6348L152.342 30.6903Z" fill="#E71837" stroke="black" stroke-width="0.3"/>
</svg>
